<svg width="62" height="39" viewBox="0 0 62 39" fill="none" xmlns="http://www.w3.org/2000/svg">
<g clip-path="url(#clip0_2_1035)">
<mask id="mask0_2_1035" style="mask-type:luminance" maskUnits="userSpaceOnUse" x="0" y="0" width="62" height="39">
<path d="M61.13 0H0.130005V39H61.13V0Z" fill="white"/>
</mask>
<g mask="url(#mask0_2_1035)">
<path d="M58.0675 0H3.13C1.47315 0 0.130005 1.34315 0.130005 3V36C0.130005 37.6569 1.47315 39 3.13 39H58.0675C59.7244 39 61.0675 37.6569 61.0675 36V3C61.0675 1.34315 59.7244 0 58.0675 0Z" fill="#00579F"/>
<path d="M27.5115 26.6927H23.7599L26.1064 13.2432H29.8579L27.5115 26.6927Z" fill="white"/>
<path d="M41.1114 13.5726C40.3714 13.3005 39.1978 13 37.7465 13C34.0416 13 31.4327 14.8313 31.4167 17.4496C31.3859 19.3813 33.2846 20.4542 34.7047 21.0983C36.1561 21.7565 36.6495 22.1861 36.6495 22.7728C36.6348 23.6738 35.4767 24.0891 34.3966 24.0891C32.8987 24.0891 32.0962 23.875 30.8765 23.3737L30.3825 23.1588L29.8575 26.178C30.7374 26.5495 32.3586 26.8793 34.0416 26.8937C37.9781 26.8937 40.5409 25.0908 40.5713 22.3006C40.5862 20.7695 39.5836 19.5964 37.4222 18.6378C36.11 18.0224 35.3064 17.6074 35.3064 16.9778C35.3218 16.4054 35.9861 15.8191 37.4673 15.8191C38.6869 15.7903 39.583 16.0621 40.2619 16.334L40.6012 16.4769L41.1114 13.5726Z" fill="white"/>
<path d="M46.0975 21.9282C46.4064 21.1556 47.5953 18.1652 47.5953 18.1652C47.5797 18.1939 47.9037 17.3783 48.0889 16.8775L48.3511 18.0364C48.3511 18.0364 49.0615 21.2558 49.2158 21.9282C48.6295 21.9282 46.8385 21.9282 46.0975 21.9282ZM50.7284 13.2434H47.8265C46.9316 13.2434 46.2518 13.4864 45.8657 14.3593L40.2931 26.6927H44.2296C44.2296 26.6927 44.8776 25.0327 45.0169 24.6752C45.4488 24.6752 49.2782 24.6752 49.8337 24.6752C49.9414 25.1474 50.2814 26.6927 50.2814 26.6927H53.755L50.7284 13.2434Z" fill="white"/>
<path d="M20.6259 13.2434L16.9518 22.4147L16.5503 20.5546C15.871 18.4084 13.7407 16.0765 11.3634 14.9171L14.7287 26.6787H18.696L24.5929 13.2434H20.6259Z" fill="white"/>
<path d="M13.5403 13.2434H7.50425L7.4425 13.5152C12.151 14.6313 15.2693 17.3216 16.5505 20.5552L15.2383 14.374C15.0223 13.515 14.3584 13.2717 13.5403 13.2434Z" fill="#FAA61A"/>
</g>
</g>
<defs>
<clipPath id="clip0_2_1035">
<rect width="61" height="39" fill="white" transform="translate(0.130005)"/>
</clipPath>
</defs>
</svg>
