<svg width="62" height="39" viewBox="0 0 62 39" fill="none" xmlns="http://www.w3.org/2000/svg">
<g clip-path="url(#clip0_2_1047)">
<mask id="mask0_2_1047" style="mask-type:luminance" maskUnits="userSpaceOnUse" x="0" y="0" width="62" height="39">
<path d="M61.13 0H0.130005V39H61.13V0Z" fill="white"/>
</mask>
<g mask="url(#mask0_2_1047)">
<path d="M58.0675 0H3.13C1.47315 0 0.130005 1.34315 0.130005 3V36C0.130005 37.6569 1.47315 39 3.13 39H58.0675C59.7244 39 61.0675 37.6569 61.0675 36V3C61.0675 1.34315 59.7244 0 58.0675 0Z" fill="#0F3560"/>
<path d="M35.6948 29.12H24.9923V9.88574H35.6948V29.12Z" fill="#FF5F00"/>
<path d="M25.6783 19.5012C25.6783 15.5994 27.5052 12.1239 30.35 9.88411C28.2697 8.24625 25.6441 7.26868 22.7907 7.26868C16.0355 7.26868 10.5597 12.7453 10.5597 19.5012C10.5597 26.2572 16.0355 31.7338 22.7907 31.7338C25.6441 31.7338 28.2697 30.7562 30.35 29.1184C27.5052 26.8786 25.6783 23.403 25.6783 19.5012Z" fill="#EB001B"/>
<path d="M50.1301 19.5012C50.1301 26.2572 44.6543 31.7338 37.8991 31.7338C35.0457 31.7338 32.4201 30.7562 30.339 29.1184C33.1846 26.8786 35.0115 23.403 35.0115 19.5012C35.0115 15.5994 33.1846 12.1239 30.339 9.88411C32.4201 8.24625 35.0457 7.26868 37.8991 7.26868C44.6543 7.26868 50.1301 12.7453 50.1301 19.5012Z" fill="#F79E1B"/>
<path d="M19.7633 19.5787C19.7633 19.0443 20.1134 18.6054 20.6856 18.6054C21.2323 18.6054 21.6013 19.0254 21.6013 19.5787C21.6013 20.1319 21.2323 20.5519 20.6856 20.5519C20.1134 20.5519 19.7633 20.113 19.7633 19.5787ZM22.2245 19.5787V18.0587H21.5635V18.4278C21.3538 18.1541 21.0357 17.9823 20.6033 17.9823C19.7509 17.9823 19.0826 18.6505 19.0826 19.5787C19.0826 20.5075 19.7509 21.175 20.6033 21.175C21.0357 21.175 21.3538 21.0033 21.5635 20.7295V21.0986H22.2245V19.5787ZM44.5609 19.5787C44.5609 19.0443 44.9111 18.6054 45.4832 18.6054C46.0306 18.6054 46.399 19.0254 46.399 19.5787C46.399 20.1319 46.0306 20.5519 45.4832 20.5519C44.9111 20.5519 44.5609 20.113 44.5609 19.5787ZM47.0228 19.5787V16.8379H46.3611V18.4278C46.1515 18.1541 45.8334 17.9823 45.401 17.9823C44.5485 17.9823 43.8803 18.6505 43.8803 19.5787C43.8803 20.5075 44.5485 21.175 45.401 21.175C45.8334 21.175 46.1515 21.0033 46.3611 20.7295V21.0986H47.0228V19.5787ZM30.4292 18.5741C30.8551 18.5741 31.1288 18.8412 31.1986 19.3115H29.6212C29.6918 18.8725 29.9582 18.5741 30.4292 18.5741ZM30.4423 17.9823C29.5513 17.9823 28.9282 18.6309 28.9282 19.5787C28.9282 20.5454 29.5768 21.175 30.4867 21.175C30.9446 21.175 31.3639 21.0608 31.733 20.7492L31.409 20.2593C31.1542 20.4624 30.8296 20.5774 30.5246 20.5774C30.0987 20.5774 29.7107 20.3801 29.6154 19.8327H31.8727C31.8793 19.7504 31.8858 19.6675 31.8858 19.5787C31.8793 18.6309 31.294 17.9823 30.4423 17.9823ZM38.4236 19.5787C38.4236 19.0443 38.7737 18.6054 39.3459 18.6054C39.8926 18.6054 40.2616 19.0254 40.2616 19.5787C40.2616 20.1319 39.8926 20.5519 39.3459 20.5519C38.7737 20.5519 38.4236 20.113 38.4236 19.5787ZM40.8848 19.5787V18.0587H40.2238V18.4278C40.0134 18.1541 39.696 17.9823 39.2636 17.9823C38.4112 17.9823 37.7429 18.6505 37.7429 19.5787C37.7429 20.5075 38.4112 21.175 39.2636 21.175C39.696 21.175 40.0134 21.0033 40.2238 20.7295V21.0986H40.8848V19.5787ZM34.6906 19.5787C34.6906 20.501 35.3327 21.175 36.3125 21.175C36.7704 21.175 37.0754 21.0731 37.4059 20.8125L37.0885 20.2782C36.8403 20.4566 36.5797 20.5519 36.2928 20.5519C35.7651 20.5454 35.3771 20.1639 35.3771 19.5787C35.3771 18.9934 35.7651 18.6119 36.2928 18.6054C36.5797 18.6054 36.8403 18.7007 37.0885 18.8791L37.4059 18.3448C37.0754 18.0842 36.7704 17.9823 36.3125 17.9823C35.3327 17.9823 34.6906 18.6563 34.6906 19.5787ZM43.2127 17.9823C42.8313 17.9823 42.5831 18.1606 42.4113 18.4278V18.0587H41.7561V21.0986H42.4178V19.3945C42.4178 18.8915 42.634 18.6119 43.0664 18.6119C43.2004 18.6119 43.3401 18.6309 43.4799 18.6884L43.6837 18.0652C43.5374 18.0077 43.3467 17.9823 43.2127 17.9823ZM25.4937 18.3004C25.1756 18.0907 24.7374 17.9823 24.254 17.9823C23.4838 17.9823 22.9881 18.3513 22.9881 18.9555C22.9881 19.4513 23.3572 19.757 24.0371 19.8524L24.3494 19.8968C24.7119 19.9477 24.8829 20.0431 24.8829 20.2149C24.8829 20.45 24.6413 20.584 24.1899 20.584C23.7321 20.584 23.4016 20.4376 23.1788 20.2658L22.8673 20.7805C23.2298 21.0477 23.6877 21.175 24.1834 21.175C25.0613 21.175 25.5701 20.7616 25.5701 20.1829C25.5701 19.6485 25.1698 19.369 24.5081 19.2736L24.1965 19.2285C23.9104 19.1907 23.6811 19.1339 23.6811 18.93C23.6811 18.7073 23.8973 18.5741 24.2598 18.5741C24.6478 18.5741 25.0234 18.7204 25.2076 18.8347L25.4937 18.3004ZM34.0224 17.9823C33.6409 17.9823 33.3927 18.1606 33.2216 18.4278V18.0587H32.5665V21.0986H33.2274V19.3945C33.2274 18.8915 33.4436 18.6119 33.8761 18.6119C34.01 18.6119 34.1498 18.6309 34.2895 18.6884L34.4934 18.0652C34.347 18.0077 34.1563 17.9823 34.0224 17.9823ZM28.3815 18.0587H27.3005V17.1364H26.6322V18.0587H26.0156V18.6629H26.6322V20.0496C26.6322 20.755 26.9059 21.175 27.6877 21.175C27.9746 21.175 28.305 21.0862 28.5147 20.9399L28.324 20.3736C28.1267 20.4879 27.9105 20.5454 27.7387 20.5454C27.4082 20.5454 27.3005 20.3415 27.3005 20.0365V18.6629H28.3815V18.0587ZM18.4981 21.0986V19.1907C18.4981 18.4722 18.0402 17.9888 17.3021 17.9823C16.9141 17.9757 16.5137 18.0965 16.2334 18.5231C16.0238 18.1861 15.6933 17.9823 15.2289 17.9823C14.9042 17.9823 14.5868 18.0776 14.3386 18.4336V18.0587H13.6769V21.0986H14.3444V19.4134C14.3444 18.8856 14.637 18.6054 15.0891 18.6054C15.5281 18.6054 15.7501 18.8915 15.7501 19.4069V21.0986H16.4183V19.4134C16.4183 18.8856 16.7233 18.6054 17.1623 18.6054C17.6136 18.6054 17.8298 18.8915 17.8298 19.4069V21.0986H18.4981Z" fill="white"/>
</g>
</g>
<defs>
<clipPath id="clip0_2_1047">
<rect width="61" height="39" fill="white" transform="translate(0.130005)"/>
</clipPath>
</defs>
</svg>
