<svg width="40" height="40" viewBox="0 0 40 40" fill="none" xmlns="http://www.w3.org/2000/svg">
<g clip-path="url(#clip0_2_1017)">
<mask id="mask0_2_1017" style="mask-type:luminance" maskUnits="userSpaceOnUse" x="0" y="0" width="40" height="40">
<path d="M39.06 0.589966H0.0599976V39.59H39.06V0.589966Z" fill="white"/>
</mask>
<g mask="url(#mask0_2_1017)">
<path d="M19.56 0.589966C8.79036 0.589966 0.0599976 9.32033 0.0599976 20.09C0.0599976 30.8596 8.79036 39.59 19.56 39.59C30.3296 39.59 39.06 30.8596 39.06 20.09C39.06 9.32033 30.3296 0.589966 19.56 0.589966Z" fill="#40B3E0"/>
<path d="M29.0484 11.807L25.5654 29.3676C25.5654 29.3676 25.0783 30.5854 23.7388 30.0008L15.7014 23.8388L12.7788 22.4263L7.85905 20.77C7.85905 20.77 7.10404 20.5022 7.03091 19.9177C6.95779 19.3331 7.88343 19.0166 7.88343 19.0166L27.4407 11.3445C27.4407 11.3445 29.0484 10.638 29.0484 11.807Z" fill="white"/>
<path d="M15.0837 29.1701C15.0837 29.1701 14.8491 29.1481 14.5566 28.2225C14.2646 27.297 12.7788 22.4259 12.7788 22.4259L24.5912 14.9245C24.5912 14.9245 25.2732 14.5105 25.2488 14.9245C25.2488 14.9245 25.3706 14.9977 25.0051 15.3386C24.6399 15.6797 15.7258 23.6925 15.7258 23.6925" fill="#D2E5F1"/>
<path d="M18.7828 26.2012L15.6038 29.0997C15.6038 29.0997 15.3552 29.2883 15.0834 29.1701L15.6922 23.7863" fill="#B5CFE4"/>
</g>
</g>
<defs>
<clipPath id="clip0_2_1017">
<rect width="39" height="39" fill="white" transform="translate(0.0599976 0.589966)"/>
</clipPath>
</defs>
</svg>
