<svg width="40" height="40" viewBox="0 0 40 40" fill="none" xmlns="http://www.w3.org/2000/svg">
<path d="M39.06 20.09C39.06 9.32041 30.3295 0.589966 19.56 0.589966C8.79045 0.589966 0.0599976 9.32041 0.0599976 20.09C0.0599976 30.8595 8.79045 39.59 19.56 39.59C30.3295 39.59 39.06 30.8595 39.06 20.09Z" fill="#00E676"/>
<path d="M27.7384 11.9468C25.6076 9.77109 22.6622 8.58997 19.654 8.58997C13.2617 8.58997 8.12271 13.7494 8.18533 20.0278C8.18533 22.017 8.74936 23.9441 9.68947 25.6846L8.06 31.59L14.139 30.0359C15.8311 30.9684 17.7111 31.4036 19.5914 31.4036C25.921 31.4036 31.06 26.244 31.06 19.9658C31.06 16.9198 29.8691 14.0603 27.7384 11.9468ZM19.654 29.4766C17.9619 29.4766 16.2698 29.0415 14.8284 28.1712L14.4524 27.9847L10.8175 28.9171L11.7576 25.3739L11.5069 25.0009C8.74936 20.5874 10.0655 14.744 14.5777 12.0089C19.0899 9.27374 24.9183 10.5792 27.6758 15.0549C30.4333 19.5305 29.1172 25.3116 24.605 28.0468C23.1635 28.9792 21.4088 29.4766 19.654 29.4766ZM25.1689 22.5766L24.4796 22.2658C24.4796 22.2658 23.4769 21.8307 22.8502 21.5198C22.7875 21.5198 22.7249 21.4576 22.6622 21.4576C22.4741 21.4576 22.3488 21.5198 22.2235 21.582C22.2235 21.582 22.1608 21.6441 21.2834 22.6388C21.2207 22.7631 21.0954 22.8253 20.9701 22.8253H20.9074C20.8447 22.8253 20.7194 22.7631 20.6567 22.701L20.3433 22.5766C19.654 22.2658 19.0273 21.8928 18.5259 21.3955C18.4006 21.2712 18.2125 21.1469 18.0872 21.0226C17.6485 20.5874 17.2098 20.0901 16.8965 19.5306L16.8338 19.4063C16.7712 19.3441 16.7712 19.282 16.7085 19.1577C16.7085 19.0334 16.7085 18.9091 16.7712 18.8469C16.7712 18.8469 17.0219 18.536 17.2098 18.3496C17.3352 18.2252 17.3979 18.0388 17.5232 17.9145C17.6485 17.7279 17.7112 17.4793 17.6485 17.2928C17.5859 16.982 16.8338 15.3036 16.6459 14.9306C16.5205 14.7441 16.3952 14.682 16.2072 14.6198H15.5178C15.3924 14.6198 15.2672 14.682 15.1417 14.682L15.079 14.7441C14.9537 14.8063 14.8284 14.9306 14.703 14.9928C14.5777 15.1172 14.515 15.2414 14.3897 15.3658C13.951 15.9253 13.7003 16.609 13.7003 17.2928C13.7003 17.7901 13.8256 18.2874 14.0137 18.7225L14.0764 18.9091C14.6404 20.0901 15.3924 21.1469 16.3952 22.0793L16.6459 22.3279C16.8338 22.5144 17.0219 22.6388 17.1472 22.8252C18.4633 23.9442 19.9673 24.7523 21.6594 25.1874C21.8475 25.2495 22.0981 25.2495 22.2862 25.3117H22.9128C23.2262 25.3117 23.6022 25.1874 23.8529 25.0631C24.0409 24.9388 24.1662 24.9388 24.2915 24.8145L24.417 24.6901C24.5423 24.5658 24.6676 24.5036 24.793 24.3793C24.9183 24.255 25.0436 24.1307 25.1063 24.0063C25.2317 23.7577 25.2943 23.4468 25.357 23.1361V22.701C25.357 22.701 25.2943 22.6388 25.1689 22.5766Z" fill="white"/>
</svg>
